<svg width="30" height="30" viewBox="0 0 30 30" fill="none" xmlns="http://www.w3.org/2000/svg">
<rect width="30" height="30" rx="6" fill="white"/>
<path d="M25.9688 13.3725C25.8295 13.1795 25.6464 13.0224 25.4345 12.9142C25.2226 12.8059 24.988 12.7497 24.75 12.75H23.25V11.25C23.25 10.8522 23.092 10.4706 22.8107 10.1893C22.5294 9.90804 22.1478 9.75 21.75 9.75H15.2503L12.6506 7.8C12.3905 7.60611 12.075 7.50094 11.7506 7.5H6.75C6.35218 7.5 5.97064 7.65804 5.68934 7.93934C5.40804 8.22064 5.25 8.60218 5.25 9V22.5C5.25 22.6989 5.32902 22.8897 5.46967 23.0303C5.61032 23.171 5.80109 23.25 6 23.25H22.7906C22.948 23.25 23.1015 23.2005 23.2292 23.1085C23.3569 23.0164 23.4524 22.8865 23.5022 22.7372L26.1731 14.7244C26.2482 14.4989 26.2689 14.2589 26.2334 14.0239C26.1978 13.7889 26.1072 13.5657 25.9688 13.3725ZM11.7506 9L14.55 11.1C14.6798 11.1974 14.8377 11.25 15 11.25H21.75V12.75H9.54094C9.2261 12.75 8.91924 12.849 8.66382 13.0331C8.4084 13.2172 8.21738 13.4769 8.11781 13.7756L6.75 17.8781V9H11.7506Z" fill="#4C3DE1"/>
<path d="M17.9863 15.2097C17.9959 15.2106 18.0052 15.2138 18.0137 15.2185H18.0146L19.6914 16.157L19.874 16.2595L20.0566 16.157L21.7314 15.2205C21.74 15.2157 21.75 15.2126 21.7598 15.2117C21.7693 15.2109 21.779 15.2125 21.7881 15.2156H21.7891C22.4921 15.4511 23.1439 15.8188 23.71 16.2976V16.2966C23.7177 16.3032 23.7242 16.3118 23.7285 16.321C23.7328 16.3302 23.7353 16.3402 23.7354 16.3503L23.7422 18.2224V18.4392L23.9307 18.5466L25.5918 19.4929C25.6005 19.4979 25.6084 19.5053 25.6143 19.5134L25.626 19.5408C25.7685 20.2552 25.7694 20.9911 25.6279 21.7058C25.626 21.7157 25.6211 21.725 25.6152 21.7332C25.6094 21.7413 25.6024 21.7487 25.5938 21.7537H25.5928L23.9326 22.7L23.7441 22.8074L23.7432 23.0242L23.7354 24.8972C23.7353 24.9073 23.7328 24.9173 23.7285 24.9265L23.71 24.9509C23.2153 25.3705 22.6547 25.7044 22.0518 25.9402L21.791 26.0349C21.7834 26.0374 21.7756 26.0388 21.7676 26.0388H21.7656L21.7334 26.031L20.0566 25.0935L19.874 24.991L19.6904 25.0935L18.0146 26.032C18.0062 26.0367 17.9969 26.0399 17.9873 26.0408C17.9775 26.0417 17.9673 26.04 17.958 26.0369H17.957C17.3418 25.8307 16.7656 25.5239 16.252 25.1296L16.0361 24.9558C16.0284 24.9492 16.0219 24.9406 16.0176 24.9314L16.0117 24.9021L16.0049 23.03L16.0039 22.8132L15.8154 22.7058L14.1553 21.7595H14.1543C14.1456 21.7546 14.1387 21.7471 14.1328 21.739C14.1269 21.7308 14.1221 21.7216 14.1201 21.7117C13.9778 20.9965 13.9779 20.2598 14.1201 19.5447V19.5437C14.1221 19.5338 14.1269 19.5245 14.1328 19.5164C14.1387 19.5083 14.1456 19.5008 14.1543 19.4958H14.1553L15.8154 18.5496L16.0039 18.4421L16.0049 18.2253L16.0127 16.3523C16.0128 16.3423 16.0153 16.3321 16.0195 16.323C16.0238 16.3139 16.0304 16.3061 16.0381 16.2996V16.2986C16.6031 15.8186 17.2545 15.4507 17.957 15.2136C17.9664 15.2105 17.9765 15.2088 17.9863 15.2097ZM20.8691 18.2214C20.3939 18.0247 19.8707 17.9726 19.3662 18.073C18.8617 18.1734 18.398 18.4212 18.0342 18.7849C17.6704 19.1487 17.4227 19.6124 17.3223 20.1169C17.2219 20.6216 17.2738 21.1455 17.4707 21.6208C17.6676 22.096 18.001 22.5021 18.4287 22.7878C18.8565 23.0737 19.3595 23.2263 19.874 23.2263C20.564 23.2263 21.226 22.9525 21.7139 22.4646C22.2017 21.9767 22.4756 21.3147 22.4756 20.6248C22.4756 20.1103 22.3229 19.6072 22.0371 19.1794C21.7512 18.7517 21.3445 18.4183 20.8691 18.2214Z" fill="#4C3DE1" stroke="#FFFFFE" stroke-width="0.75"/>
</svg>
